<svg width="340" height="200" viewBox="0 0 340 200" fill="none" xmlns="http://www.w3.org/2000/svg">
<g filter="url(#filter0_d_392_27)">
<path d="M84.7743 52.864L92.0703 65.92L99.3663 52.864L101.03 68H103.75L101.03 44.48L92.0703 60.704L83.1103 44.48L80.3903 68H83.1103L84.7743 52.864ZM109.302 45.6V68H112.022V45.6H109.302ZM118.871 45.6V68H121.591V45.6H118.871ZM125.591 68C127.767 68 129.698 67.5307 131.383 66.592C133.069 65.6533 134.391 64.352 135.351 62.688C136.311 61.0027 136.791 59.04 136.791 56.8C136.791 54.56 136.311 52.608 135.351 50.944C134.391 49.2587 133.069 47.9467 131.383 47.008C129.698 46.0693 127.767 45.6 125.591 45.6H120.375V48.32H125.591C126.85 48.32 128.002 48.5227 129.047 48.928C130.093 49.312 130.989 49.8773 131.735 50.624C132.482 51.3493 133.058 52.2347 133.463 53.28C133.869 54.3253 134.071 55.4987 134.071 56.8C134.071 58.1013 133.869 59.2747 133.463 60.32C133.058 61.3653 132.482 62.2613 131.735 63.008C130.989 63.7333 130.093 64.2987 129.047 64.704C128.002 65.088 126.85 65.28 125.591 65.28H120.375V68H125.591ZM159.307 45.6V62.272L142.347 44.48V68H145.067V51.328L162.027 69.12V45.6H159.307ZM168.885 45.6V68H171.605V45.6H168.885ZM188.854 59.2H196.31C196.118 60.0747 195.809 60.896 195.382 61.664C194.977 62.432 194.454 63.1147 193.814 63.712C193.174 64.3093 192.406 64.7787 191.51 65.12C190.635 65.44 189.643 65.6 188.534 65.6C186.955 65.6 185.526 65.2267 184.246 64.48C182.966 63.7333 181.942 62.6987 181.174 61.376C180.427 60.0533 180.054 58.528 180.054 56.8C180.054 55.0507 180.427 53.5253 181.174 52.224C181.942 50.9013 182.966 49.8667 184.246 49.12C185.526 48.3733 186.955 48 188.534 48C190.241 48 191.723 48.3413 192.982 49.024C194.241 49.6853 195.222 50.6133 195.926 51.808L197.846 50.048C197.206 49.0027 196.417 48.128 195.478 47.424C194.561 46.72 193.515 46.1867 192.342 45.824C191.19 45.4613 189.921 45.28 188.534 45.28C186.913 45.28 185.409 45.568 184.022 46.144C182.635 46.6987 181.43 47.4987 180.406 48.544C179.382 49.568 178.582 50.784 178.006 52.192C177.451 53.6 177.174 55.136 177.174 56.8C177.174 58.464 177.451 60 178.006 61.408C178.582 62.816 179.382 64.0427 180.406 65.088C181.43 66.112 182.635 66.912 184.022 67.488C185.409 68.0427 186.913 68.32 188.534 68.32C190.241 68.32 191.755 68.0107 193.078 67.392C194.422 66.752 195.553 65.888 196.47 64.8C197.387 63.712 198.081 62.4747 198.55 61.088C199.019 59.68 199.254 58.1973 199.254 56.64H188.854V59.2ZM206.496 57.12H221.856V54.56H206.496V57.12ZM220.032 45.6V68H222.752V45.6H220.032ZM204.992 45.6V68H207.712V45.6H204.992ZM227.352 48.16H233.112V68H235.832V48.16H241.592V45.6H227.352V48.16ZM247.025 61.216L244.849 62.688C245.34 63.6693 245.969 64.5973 246.737 65.472C247.526 66.3253 248.433 67.0187 249.457 67.552C250.502 68.064 251.633 68.32 252.849 68.32C253.745 68.32 254.598 68.1707 255.409 67.872C256.241 67.5733 256.977 67.1467 257.617 66.592C258.278 66.0373 258.79 65.3653 259.153 64.576C259.537 63.7867 259.729 62.9013 259.729 61.92C259.729 60.896 259.548 60.0213 259.185 59.296C258.822 58.5493 258.353 57.92 257.777 57.408C257.222 56.8747 256.614 56.4373 255.953 56.096C255.292 55.7547 254.662 55.4773 254.065 55.264C252.764 54.816 251.729 54.368 250.961 53.92C250.214 53.4507 249.681 52.96 249.361 52.448C249.041 51.9147 248.881 51.3387 248.881 50.72C248.881 49.9947 249.158 49.344 249.713 48.768C250.268 48.1707 251.153 47.872 252.369 47.872C253.244 47.872 253.98 48.0427 254.577 48.384C255.196 48.7253 255.718 49.1627 256.145 49.696C256.572 50.2293 256.924 50.7733 257.201 51.328L259.537 49.984C259.174 49.1947 258.673 48.448 258.033 47.744C257.393 47.0187 256.614 46.432 255.697 45.984C254.801 45.5147 253.745 45.28 252.529 45.28C251.27 45.28 250.15 45.536 249.169 46.048C248.188 46.5387 247.42 47.2213 246.865 48.096C246.31 48.9707 246.033 49.9627 246.033 51.072C246.033 52.096 246.225 52.96 246.609 53.664C247.014 54.368 247.526 54.9653 248.145 55.456C248.764 55.9253 249.414 56.32 250.097 56.64C250.78 56.9387 251.398 57.184 251.953 57.376C252.806 57.6747 253.606 58.016 254.353 58.4C255.121 58.7627 255.74 59.2427 256.209 59.84C256.678 60.4373 256.913 61.2373 256.913 62.24C256.913 63.264 256.55 64.1067 255.825 64.768C255.1 65.4293 254.14 65.76 252.945 65.76C252.049 65.76 251.249 65.568 250.545 65.184C249.841 64.8 249.201 64.2667 248.625 63.584C248.07 62.9013 247.537 62.112 247.025 61.216ZM114.864 84.6H117.124C117.964 84.6 118.69 84.48 119.304 84.24C119.93 84 120.417 83.6467 120.764 83.18C121.11 82.7133 121.284 82.1533 121.284 81.5C121.284 80.7 121.11 80.0467 120.764 79.54C120.417 79.02 119.93 78.6333 119.304 78.38C118.69 78.1267 117.964 78 117.124 78H113.524V92H117.324C118.23 92 119.037 91.8533 119.744 91.56C120.464 91.2533 121.03 90.8 121.444 90.2C121.87 89.5867 122.084 88.82 122.084 87.9C122.084 87.26 121.964 86.7067 121.724 86.24C121.484 85.7733 121.144 85.3933 120.704 85.1C120.277 84.7933 119.777 84.5667 119.204 84.42C118.63 84.2733 118.004 84.2 117.324 84.2H114.864V85.14H117.324C117.777 85.14 118.19 85.2 118.564 85.32C118.937 85.4267 119.257 85.5933 119.524 85.82C119.804 86.0467 120.017 86.3267 120.164 86.66C120.31 86.9933 120.384 87.3733 120.384 87.8C120.384 88.3733 120.25 88.86 119.984 89.26C119.73 89.66 119.37 89.9667 118.904 90.18C118.45 90.3933 117.924 90.5 117.324 90.5H115.224V79.5H117.124C117.83 79.5 118.417 79.6867 118.884 80.06C119.35 80.42 119.584 80.9333 119.584 81.6C119.584 82.04 119.477 82.4133 119.264 82.72C119.05 83.0267 118.757 83.26 118.384 83.42C118.01 83.58 117.59 83.66 117.124 83.66H114.864V84.6ZM127.402 85C127.402 83.9467 127.628 83.0067 128.082 82.18C128.548 81.3533 129.182 80.7 129.982 80.22C130.782 79.74 131.688 79.5 132.702 79.5C133.728 79.5 134.635 79.74 135.422 80.22C136.222 80.7 136.848 81.3533 137.302 82.18C137.768 83.0067 138.002 83.9467 138.002 85C138.002 86.0533 137.768 86.9933 137.302 87.82C136.848 88.6467 136.222 89.3 135.422 89.78C134.635 90.26 133.728 90.5 132.702 90.5C131.688 90.5 130.782 90.26 129.982 89.78C129.182 89.3 128.548 88.6467 128.082 87.82C127.628 86.9933 127.402 86.0533 127.402 85ZM125.602 85C125.602 86.0133 125.775 86.96 126.122 87.84C126.482 88.72 126.982 89.4867 127.622 90.14C128.262 90.78 129.015 91.2867 129.882 91.66C130.748 92.02 131.688 92.2 132.702 92.2C133.728 92.2 134.668 92.02 135.522 91.66C136.388 91.2867 137.142 90.78 137.782 90.14C138.422 89.4867 138.915 88.72 139.262 87.84C139.622 86.96 139.802 86.0133 139.802 85C139.802 83.9733 139.622 83.0267 139.262 82.16C138.915 81.28 138.422 80.52 137.782 79.88C137.142 79.2267 136.388 78.72 135.522 78.36C134.668 77.9867 133.728 77.8 132.702 77.8C131.688 77.8 130.748 77.9867 129.882 78.36C129.015 78.72 128.262 79.2267 127.622 79.88C126.982 80.52 126.482 81.28 126.122 82.16C125.775 83.0267 125.602 83.9733 125.602 85ZM144.928 85C144.928 83.9467 145.154 83.0067 145.608 82.18C146.074 81.3533 146.708 80.7 147.508 80.22C148.308 79.74 149.214 79.5 150.228 79.5C151.254 79.5 152.161 79.74 152.948 80.22C153.748 80.7 154.374 81.3533 154.828 82.18C155.294 83.0067 155.528 83.9467 155.528 85C155.528 86.0533 155.294 86.9933 154.828 87.82C154.374 88.6467 153.748 89.3 152.948 89.78C152.161 90.26 151.254 90.5 150.228 90.5C149.214 90.5 148.308 90.26 147.508 89.78C146.708 89.3 146.074 88.6467 145.608 87.82C145.154 86.9933 144.928 86.0533 144.928 85ZM143.128 85C143.128 86.0133 143.301 86.96 143.648 87.84C144.008 88.72 144.508 89.4867 145.148 90.14C145.788 90.78 146.541 91.2867 147.408 91.66C148.274 92.02 149.214 92.2 150.228 92.2C151.254 92.2 152.194 92.02 153.048 91.66C153.914 91.2867 154.668 90.78 155.308 90.14C155.948 89.4867 156.441 88.72 156.788 87.84C157.148 86.96 157.328 86.0133 157.328 85C157.328 83.9733 157.148 83.0267 156.788 82.16C156.441 81.28 155.948 80.52 155.308 79.88C154.668 79.2267 153.914 78.72 153.048 78.36C152.194 77.9867 151.254 77.8 150.228 77.8C149.214 77.8 148.274 77.9867 147.408 78.36C146.541 78.72 145.788 79.2267 145.148 79.88C144.508 80.52 144.008 81.28 143.648 82.16C143.301 83.0267 143.128 83.9733 143.128 85ZM161.454 78V92H163.154V78H161.454ZM168.654 78L162.634 84.6L168.954 92H171.054L164.694 84.56L170.754 78H168.654ZM175.008 87.76L173.648 88.68C173.955 89.2933 174.348 89.8733 174.828 90.42C175.321 90.9533 175.888 91.3867 176.528 91.72C177.181 92.04 177.888 92.2 178.648 92.2C179.208 92.2 179.741 92.1067 180.248 91.92C180.768 91.7333 181.228 91.4667 181.628 91.12C182.041 90.7733 182.361 90.3533 182.588 89.86C182.828 89.3667 182.948 88.8133 182.948 88.2C182.948 87.56 182.835 87.0133 182.608 86.56C182.381 86.0933 182.088 85.7 181.728 85.38C181.381 85.0467 181.001 84.7733 180.588 84.56C180.175 84.3467 179.781 84.1733 179.408 84.04C178.595 83.76 177.948 83.48 177.468 83.2C177.001 82.9067 176.668 82.6 176.468 82.28C176.268 81.9467 176.168 81.5867 176.168 81.2C176.168 80.7467 176.341 80.34 176.688 79.98C177.035 79.6067 177.588 79.42 178.348 79.42C178.895 79.42 179.355 79.5267 179.728 79.74C180.115 79.9533 180.441 80.2267 180.708 80.56C180.975 80.8933 181.195 81.2333 181.368 81.58L182.828 80.74C182.601 80.2467 182.288 79.78 181.888 79.34C181.488 78.8867 181.001 78.52 180.428 78.24C179.868 77.9467 179.208 77.8 178.448 77.8C177.661 77.8 176.961 77.96 176.348 78.28C175.735 78.5867 175.255 79.0133 174.908 79.56C174.561 80.1067 174.388 80.7267 174.388 81.42C174.388 82.06 174.508 82.6 174.748 83.04C175.001 83.48 175.321 83.8533 175.708 84.16C176.095 84.4533 176.501 84.7 176.928 84.9C177.355 85.0867 177.741 85.24 178.088 85.36C178.621 85.5467 179.121 85.76 179.588 86C180.068 86.2267 180.455 86.5267 180.748 86.9C181.041 87.2733 181.188 87.7733 181.188 88.4C181.188 89.04 180.961 89.5667 180.508 89.98C180.055 90.3933 179.455 90.6 178.708 90.6C178.148 90.6 177.648 90.48 177.208 90.24C176.768 90 176.368 89.6667 176.008 89.24C175.661 88.8133 175.328 88.32 175.008 87.76ZM188.111 85.2H197.711V83.6H188.111V85.2ZM196.571 78V92H198.271V78H196.571ZM187.171 78V92H188.871V78H187.171ZM204.193 85C204.193 83.9467 204.42 83.0067 204.873 82.18C205.34 81.3533 205.973 80.7 206.773 80.22C207.573 79.74 208.48 79.5 209.493 79.5C210.52 79.5 211.426 79.74 212.213 80.22C213.013 80.7 213.64 81.3533 214.093 82.18C214.56 83.0067 214.793 83.9467 214.793 85C214.793 86.0533 214.56 86.9933 214.093 87.82C213.64 88.6467 213.013 89.3 212.213 89.78C211.426 90.26 210.52 90.5 209.493 90.5C208.48 90.5 207.573 90.26 206.773 89.78C205.973 89.3 205.34 88.6467 204.873 87.82C204.42 86.9933 204.193 86.0533 204.193 85ZM202.393 85C202.393 86.0133 202.566 86.96 202.913 87.84C203.273 88.72 203.773 89.4867 204.413 90.14C205.053 90.78 205.806 91.2867 206.673 91.66C207.54 92.02 208.48 92.2 209.493 92.2C210.52 92.2 211.46 92.02 212.313 91.66C213.18 91.2867 213.933 90.78 214.573 90.14C215.213 89.4867 215.706 88.72 216.053 87.84C216.413 86.96 216.593 86.0133 216.593 85C216.593 83.9733 216.413 83.0267 216.053 82.16C215.706 81.28 215.213 80.52 214.573 79.88C213.933 79.2267 213.18 78.72 212.313 78.36C211.46 77.9867 210.52 77.8 209.493 77.8C208.48 77.8 207.54 77.9867 206.673 78.36C205.806 78.72 205.053 79.2267 204.413 79.88C203.773 80.52 203.273 81.28 202.913 82.16C202.566 83.0267 202.393 83.9733 202.393 85ZM220.719 78V92H222.419V78H220.719ZM221.659 79.6H224.519C225.426 79.6 226.159 79.82 226.719 80.26C227.293 80.6867 227.579 81.3333 227.579 82.2C227.579 83.0533 227.293 83.7 226.719 84.14C226.159 84.58 225.426 84.8 224.519 84.8H221.659V86.4H224.519C225.426 86.4 226.233 86.2333 226.939 85.9C227.659 85.5533 228.226 85.0667 228.639 84.44C229.066 83.8 229.279 83.0533 229.279 82.2C229.279 81.3333 229.066 80.5867 228.639 79.96C228.226 79.3333 227.659 78.8533 226.939 78.52C226.233 78.1733 225.426 78 224.519 78H221.659V79.6Z" fill="#2A2C31"/>
</g>
<defs>
<filter id="filter0_d_392_27" x="0.390381" y="-0.52002" width="339.339" height="207.72" filterUnits="userSpaceOnUse" color-interpolation-filters="sRGB">
<feFlood flood-opacity="0" result="BackgroundImageFix"/>
<feColorMatrix in="SourceAlpha" type="matrix" values="0 0 0 0 0 0 0 0 0 0 0 0 0 0 0 0 0 0 127 0" result="hardAlpha"/>
<feOffset dy="35"/>
<feGaussianBlur stdDeviation="40"/>
<feComposite in2="hardAlpha" operator="out"/>
<feColorMatrix type="matrix" values="0 0 0 0 0 0 0 0 0 0 0 0 0 0 0 0 0 0 0.25 0"/>
<feBlend mode="normal" in2="BackgroundImageFix" result="effect1_dropShadow_392_27"/>
<feBlend mode="normal" in="SourceGraphic" in2="effect1_dropShadow_392_27" result="shape"/>
</filter>
</defs>
</svg>
